<mxfile host="app.diagrams.net" agent="Mozilla/5.0 (Windows NT 10.0; Win64; x64) AppleWebKit/537.36 (KHTML, like Gecko) Chrome/141.0.0.0 Safari/537.36" version="28.2.3">
  <diagram id="diagram-id-1" name="Page-1">
    <mxGraphModel dx="1042" dy="562" grid="0" gridSize="10" guides="1" tooltips="1" connect="1" arrows="1" fold="1" page="1" pageScale="1" pageWidth="850" pageHeight="1100" math="0" shadow="0">
      <root>
        <mxCell id="0" />
        <mxCell id="1" parent="0" />
        <mxCell id="id-title" value="&lt;font style=&quot;font-size: 14px;&quot; color=&quot;#0000FF&quot;&gt;&lt;b&gt;1&lt;sup&gt;st&lt;/sup&gt; Level DFD - Hospital Management System&lt;/b&gt;&lt;/font&gt;" style="text;html=1;strokeColor=none;fillColor=none;align=center;verticalAlign=middle;whiteSpace=wrap;rounded=0;" parent="1" vertex="1">
          <mxGeometry x="225" y="20" width="400" height="30" as="geometry" />
        </mxCell>
        <mxCell id="2" value="Hospital Staff" style="shape=rectangle;whiteSpace=wrap;html=1;strokeColor=#000000;fillColor=#FFFFFF;" parent="1" vertex="1">
          <mxGeometry x="40" y="150" width="120" height="60" as="geometry" />
        </mxCell>
        <mxCell id="3" value="1.0&lt;br&gt;Login" style="shape=rounded;whiteSpace=wrap;html=1;rounded=1;arcSize=50;strokeColor=#000000;fillColor=#FFFFFF;" parent="1" vertex="1">
          <mxGeometry x="382" y="98" width="120" height="60" as="geometry" />
        </mxCell>
        <mxCell id="4" value="2.0&lt;br&gt;Add Room" style="shape=rounded;whiteSpace=wrap;html=1;rounded=1;arcSize=50;strokeColor=#000000;fillColor=#FFFFFF;" parent="1" vertex="1">
          <mxGeometry x="372" y="240" width="120" height="60" as="geometry" />
        </mxCell>
        <mxCell id="5" value="3.0&lt;br&gt;Add Doctor" style="shape=rounded;whiteSpace=wrap;html=1;rounded=1;arcSize=50;strokeColor=#000000;fillColor=#FFFFFF;" parent="1" vertex="1">
          <mxGeometry x="372" y="342" width="120" height="60" as="geometry" />
        </mxCell>
        <mxCell id="6" value="4.0&lt;br&gt;Add Patient" style="shape=rounded;whiteSpace=wrap;html=1;rounded=1;arcSize=50;strokeColor=#000000;fillColor=#FFFFFF;" parent="1" vertex="1">
          <mxGeometry x="377" y="464" width="120" height="60" as="geometry" />
        </mxCell>
        <mxCell id="8" value="" style="line;strokeWidth=1;html=1;strokeColor=#000000;" parent="1" vertex="1">
          <mxGeometry x="600" y="245" width="120" as="geometry" />
        </mxCell>
        <mxCell id="9" value="" style="line;strokeWidth=1;html=1;strokeColor=#000000;" parent="1" vertex="1">
          <mxGeometry x="600" y="275" width="120" as="geometry" />
        </mxCell>
        <mxCell id="10" value="RoomMst" style="text;html=1;strokeColor=none;fillColor=none;align=center;verticalAlign=middle;whiteSpace=wrap;rounded=0;" parent="1" vertex="1">
          <mxGeometry x="670" y="245" width="120" height="20" as="geometry" />
        </mxCell>
        <mxCell id="11" value="" style="line;strokeWidth=1;html=1;strokeColor=#000000;" parent="1" vertex="1">
          <mxGeometry x="600" y="365" width="120" as="geometry" />
        </mxCell>
        <mxCell id="12" value="" style="line;strokeWidth=1;html=1;strokeColor=#000000;" parent="1" vertex="1">
          <mxGeometry x="600" y="395" width="120" as="geometry" />
        </mxCell>
        <mxCell id="13" value="DoctorMst" style="text;html=1;strokeColor=none;fillColor=none;align=center;verticalAlign=middle;whiteSpace=wrap;rounded=0;" parent="1" vertex="1">
          <mxGeometry x="700" y="365" width="120" height="20" as="geometry" />
        </mxCell>
        <mxCell id="14" value="" style="line;strokeWidth=1;html=1;strokeColor=#000000;" parent="1" vertex="1">
          <mxGeometry x="600" y="485" width="120" as="geometry" />
        </mxCell>
        <mxCell id="15" value="" style="line;strokeWidth=1;html=1;strokeColor=#000000;" parent="1" vertex="1">
          <mxGeometry x="600" y="515" width="120" as="geometry" />
        </mxCell>
        <mxCell id="16" value="PatientMst" style="text;html=1;strokeColor=none;fillColor=none;align=center;verticalAlign=middle;whiteSpace=wrap;rounded=0;" parent="1" vertex="1">
          <mxGeometry x="720" y="480" width="120" height="20" as="geometry" />
        </mxCell>
        <mxCell id="17" value="" style="line;strokeWidth=1;html=1;strokeColor=#000000;" parent="1" vertex="1">
          <mxGeometry x="600" y="605" width="120" as="geometry" />
        </mxCell>
        <mxCell id="18" value="" style="line;strokeWidth=1;html=1;strokeColor=#000000;" parent="1" vertex="1">
          <mxGeometry x="600" y="635" width="120" as="geometry" />
        </mxCell>
        <mxCell id="19" value="PatientMst / BillMst" style="text;html=1;strokeColor=none;fillColor=none;align=center;verticalAlign=middle;whiteSpace=wrap;rounded=0;" parent="1" vertex="1">
          <mxGeometry x="702" y="605" width="120" height="20" as="geometry" />
        </mxCell>
        <mxCell id="20" value="" style="endArrow=classic;html=1;rounded=0;" parent="1" source="3" target="4" edge="1">
          <mxGeometry width="50" height="50" relative="1" as="geometry">
            <mxPoint x="410" y="160" as="sourcePoint" />
            <mxPoint x="410" y="220" as="targetPoint" />
          </mxGeometry>
        </mxCell>
        <mxCell id="21" value="" style="endArrow=classic;html=1;rounded=0;" parent="1" source="4" target="5" edge="1">
          <mxGeometry width="50" height="50" relative="1" as="geometry">
            <mxPoint x="410" y="280" as="sourcePoint" />
            <mxPoint x="410" y="340" as="targetPoint" />
          </mxGeometry>
        </mxCell>
        <mxCell id="22" value="" style="endArrow=classic;html=1;rounded=0;" parent="1" source="5" target="6" edge="1">
          <mxGeometry width="50" height="50" relative="1" as="geometry">
            <mxPoint x="410" y="400" as="sourcePoint" />
            <mxPoint x="410" y="460" as="targetPoint" />
          </mxGeometry>
        </mxCell>
        <mxCell id="23" value="" style="endArrow=classic;html=1;rounded=0;" parent="1" source="6" target="7" edge="1">
          <mxGeometry width="50" height="50" relative="1" as="geometry">
            <mxPoint x="410" y="520" as="sourcePoint" />
            <mxPoint x="410" y="580" as="targetPoint" />
          </mxGeometry>
        </mxCell>
        <mxCell id="25" value="Reqest to Login" style="endArrow=classic;html=1;rounded=0;exitX=1;exitY=0.5;exitDx=0;exitDy=0;entryX=0;entryY=0.75;entryDx=0;entryDy=0;" parent="1" target="3" edge="1">
          <mxGeometry x="0.1027" y="-14" width="50" height="50" relative="1" as="geometry">
            <mxPoint x="160" y="202" as="sourcePoint" />
            <mxPoint x="382" y="150" as="targetPoint" />
            <mxPoint as="offset" />
          </mxGeometry>
        </mxCell>
        <mxCell id="27" value="Response" style="endArrow=classic;html=1;rounded=0;exitX=0;exitY=0.25;exitDx=0;exitDy=0;entryX=0;entryY=0.5;entryDx=0;entryDy=0;" parent="1" source="3" edge="1">
          <mxGeometry x="-0.2219" y="-12" width="50" height="50" relative="1" as="geometry">
            <mxPoint x="396" y="98" as="sourcePoint" />
            <mxPoint x="54" y="150" as="targetPoint" />
            <mxPoint as="offset" />
          </mxGeometry>
        </mxCell>
        <mxCell id="29" value="Add Room" style="endArrow=classic;html=1;rounded=0;edgeStyle=orthogonalEdgeStyle;elbow=vertical;exitX=0.25;exitY=1;exitDx=0;exitDy=0;entryX=0.067;entryY=0.163;entryDx=0;entryDy=0;entryPerimeter=0;" parent="1" target="4" edge="1">
          <mxGeometry x="-0.0325" y="-13" relative="1" as="geometry">
            <mxPoint as="offset" />
            <mxPoint x="146" y="210" as="sourcePoint" />
            <mxPoint x="448" y="270" as="targetPoint" />
            <Array as="points">
              <mxPoint x="368" y="210" />
              <mxPoint x="368" y="270" />
              <mxPoint x="380" y="270" />
            </Array>
          </mxGeometry>
        </mxCell>
        <mxCell id="31" value="Response" style="endArrow=classic;html=1;rounded=0;edgeStyle=orthogonalEdgeStyle;elbow=horizontal;exitX=0.027;exitY=0.63;exitDx=0;exitDy=0;entryX=0.35;entryY=1;entryDx=0;entryDy=0;exitPerimeter=0;" parent="1" source="4" edge="1">
          <mxGeometry relative="1" as="geometry">
            <mxPoint x="30" y="10" as="offset" />
            <mxPoint x="362" y="270" as="sourcePoint" />
            <mxPoint x="72" y="210" as="targetPoint" />
          </mxGeometry>
        </mxCell>
        <mxCell id="33" value="Add Doctor" style="endArrow=classic;html=1;rounded=0;edgeStyle=orthogonalEdgeStyle;elbow=vertical;exitX=0.4;exitY=1;exitDx=0;exitDy=0;entryX=0;entryY=0.5;entryDx=0;entryDy=0;" parent="1" source="2" target="5" edge="1">
          <mxGeometry x="0.3632" y="13" relative="1" as="geometry">
            <mxPoint as="offset" />
          </mxGeometry>
        </mxCell>
        <mxCell id="35" value="Response" style="endArrow=classic;html=1;rounded=0;edgeStyle=orthogonalEdgeStyle;elbow=horizontal;exitX=0;exitY=0.75;exitDx=0;exitDy=0;entryX=0.5;entryY=1;entryDx=0;entryDy=0;" parent="1" source="5" edge="1">
          <mxGeometry relative="1" as="geometry">
            <mxPoint x="30" y="10" as="offset" />
            <mxPoint x="322" y="374" as="sourcePoint" />
            <mxPoint x="50" y="212" as="targetPoint" />
          </mxGeometry>
        </mxCell>
        <mxCell id="37" value="Add Patient" style="endArrow=classic;html=1;rounded=0;edgeStyle=orthogonalEdgeStyle;elbow=vertical;exitX=0.55;exitY=1;exitDx=0;exitDy=0;entryX=0;entryY=0.5;entryDx=0;entryDy=0;" parent="1" source="2" target="6" edge="1">
          <mxGeometry x="0.4955" y="23" relative="1" as="geometry">
            <mxPoint as="offset" />
          </mxGeometry>
        </mxCell>
        <mxCell id="39" value="Response" style="endArrow=classic;html=1;rounded=0;edgeStyle=orthogonalEdgeStyle;elbow=horizontal;exitX=0;exitY=0.75;exitDx=0;exitDy=0;entryX=0.5;entryY=1;entryDx=0;entryDy=0;" parent="1" source="6" target="2" edge="1">
          <mxGeometry x="-0.6285" y="9" relative="1" as="geometry">
            <mxPoint as="offset" />
            <mxPoint x="355" y="514" as="sourcePoint" />
            <mxPoint x="96" y="230" as="targetPoint" />
          </mxGeometry>
        </mxCell>
        <mxCell id="41" value="Reqest to View" style="endArrow=classic;html=1;rounded=0;edgeStyle=orthogonalEdgeStyle;elbow=vertical;exitX=0.7;exitY=1;exitDx=0;exitDy=0;entryX=0;entryY=0.5;entryDx=0;entryDy=0;" parent="1" source="2" target="7" edge="1">
          <mxGeometry x="0.5449" y="7" relative="1" as="geometry">
            <mxPoint as="offset" />
          </mxGeometry>
        </mxCell>
        <mxCell id="43" value="Response" style="endArrow=classic;html=1;rounded=0;edgeStyle=orthogonalEdgeStyle;elbow=horizontal;exitX=0;exitY=0.75;exitDx=0;exitDy=0;entryX=0.8;entryY=1;entryDx=0;entryDy=0;" parent="1" source="7" edge="1">
          <mxGeometry x="-0.6814" y="12" relative="1" as="geometry">
            <mxPoint as="offset" />
            <mxPoint x="306" y="620" as="sourcePoint" />
            <mxPoint x="60" y="210" as="targetPoint" />
          </mxGeometry>
        </mxCell>
        <mxCell id="45" value="Insert Data" style="endArrow=classic;html=1;rounded=0;entryX=0;entryY=0.25;entryDx=0;entryDy=0;" parent="1" source="4" target="10" edge="1">
          <mxGeometry width="50" height="50" relative="1" as="geometry">
            <mxPoint x="480" y="250" as="sourcePoint" />
            <mxPoint x="590" y="250" as="targetPoint" />
            <mxPoint x="-30" y="-10" as="offset" />
          </mxGeometry>
        </mxCell>
        <mxCell id="47" value="Reply" style="endArrow=classic;html=1;rounded=0;exitX=0;exitY=0.75;exitDx=0;exitDy=0;" parent="1" source="10" target="4" edge="1">
          <mxGeometry width="50" height="50" relative="1" as="geometry">
            <mxPoint x="590" y="280" as="sourcePoint" />
            <mxPoint x="480" y="280" as="targetPoint" />
            <mxPoint x="30" y="10" as="offset" />
          </mxGeometry>
        </mxCell>
        <mxCell id="49" value="Insert Data" style="endArrow=classic;html=1;rounded=0;entryX=0;entryY=0;entryDx=0;entryDy=0;" parent="1" source="5" target="13" edge="1">
          <mxGeometry width="50" height="50" relative="1" as="geometry">
            <mxPoint x="480" y="370" as="sourcePoint" />
            <mxPoint x="590" y="370" as="targetPoint" />
            <mxPoint x="-30" y="-10" as="offset" />
          </mxGeometry>
        </mxCell>
        <mxCell id="51" value="Reply" style="endArrow=classic;html=1;rounded=0;" parent="1" target="5" edge="1">
          <mxGeometry width="50" height="50" relative="1" as="geometry">
            <mxPoint x="694" y="383" as="sourcePoint" />
            <mxPoint x="480" y="400" as="targetPoint" />
            <mxPoint x="30" y="10" as="offset" />
          </mxGeometry>
        </mxCell>
        <mxCell id="53" value="Insert Data" style="endArrow=classic;html=1;rounded=0;entryX=1;entryY=0.5;entryDx=0;entryDy=0;entryPerimeter=0;" parent="1" source="6" target="14" edge="1">
          <mxGeometry width="50" height="50" relative="1" as="geometry">
            <mxPoint x="480" y="490" as="sourcePoint" />
            <mxPoint x="590" y="490" as="targetPoint" />
            <mxPoint x="-30" y="-10" as="offset" />
          </mxGeometry>
        </mxCell>
        <mxCell id="55" value="Reply" style="endArrow=classic;html=1;rounded=0;exitX=0;exitY=1;exitDx=0;exitDy=0;" parent="1" source="16" target="6" edge="1">
          <mxGeometry width="50" height="50" relative="1" as="geometry">
            <mxPoint x="590" y="520" as="sourcePoint" />
            <mxPoint x="480" y="520" as="targetPoint" />
            <mxPoint x="30" y="10" as="offset" />
          </mxGeometry>
        </mxCell>
        <mxCell id="57" value="Req. for View" style="endArrow=classic;html=1;rounded=0;entryX=0.09;entryY=0.2;entryDx=0;entryDy=0;entryPerimeter=0;" parent="1" source="7" target="19" edge="1">
          <mxGeometry width="50" height="50" relative="1" as="geometry">
            <mxPoint x="480" y="610" as="sourcePoint" />
            <mxPoint x="590" y="610" as="targetPoint" />
            <mxPoint x="-30" y="-10" as="offset" />
          </mxGeometry>
        </mxCell>
        <mxCell id="id-footer" value="DFD 1 Level - Healthcare System" style="text;html=1;strokeColor=none;fillColor=none;align=center;verticalAlign=middle;whiteSpace=wrap;rounded=0;" parent="1" vertex="1">
          <mxGeometry x="225" y="750" width="400" height="30" as="geometry" />
        </mxCell>
        <mxCell id="60" value="" style="endArrow=classic;html=1;rounded=0;exitX=0;exitY=1;exitDx=0;exitDy=0;" parent="1" source="19" target="7" edge="1">
          <mxGeometry x="-0.3655" y="12" width="50" height="50" relative="1" as="geometry">
            <mxPoint x="670" y="625" as="sourcePoint" />
            <mxPoint x="470" y="617.2222222222222" as="targetPoint" />
            <mxPoint as="offset" />
            <Array as="points" />
          </mxGeometry>
        </mxCell>
        <mxCell id="61" value="display data" style="edgeLabel;html=1;align=center;verticalAlign=middle;resizable=0;points=[];fontSize=12;" parent="60" vertex="1" connectable="0">
          <mxGeometry x="-0.1003" y="1" relative="1" as="geometry">
            <mxPoint as="offset" />
          </mxGeometry>
        </mxCell>
        <mxCell id="7" value="5.0&lt;br&gt;View Reports" style="shape=rounded;whiteSpace=wrap;html=1;rounded=1;arcSize=50;strokeColor=#000000;fillColor=#FFFFFF;" parent="1" vertex="1">
          <mxGeometry x="382" y="590" width="120" height="60" as="geometry" />
        </mxCell>
      </root>
    </mxGraphModel>
  </diagram>
</mxfile>
